/* XPM */
static char * dispcolor_xpm[] = {
"22 22 8 1",
" 	c none",
".	c #000000000000",
"X	c #79E77DF779E7",
"o	c #0000000079E7",
"O	c #00000000FFFF",
"+	c #0000FFFF0000",
"@	c #00007DF779E7",
"#	c #00007DF70000",
"                      ",
"               .      ",
"              .       ",
"         XXXXX.oo     ",
"       XXX   .ooO     ",
"      XXX   .  OO     ",
"      XXX   .   O     ",
"     XXX   .          ",
"     XXX  .           ",
"     XXX  .           ",
"     XXX .            ",
"     XXX .            ",
"      XX.             ",
"      X.+      @@     ",
"       .+++  ##@      ",
"      .  ++###        ",
"     .                ",
"     .                ",
"    .                 ",
"                      ",
"                      ",
"                      "};
