/* XPM */
static char * movedest_xpm[] = {
"22 22 4 1",
" 	c none",
".	c #000000000000",
"X	c #00007DF70000",
"o	c #0000FFFF0000",
"          ..          ",
"         ....         ",
"         ....         ",
"        ......        ",
"        ......        ",
"      XXXX..XXXXXXXXX ",
"      Xooo..ooooooooX ",
"      Xo  ..       oX ",
"   .. Xo  ..     ..oX ",
" .... Xo  ..     .... ",
"......................",
"......................",
" .... Xo  ..     .... ",
"   .. Xo  ..     ..oX ",
"      Xo  ..       oX ",
"      Xo  ..       oX ",
"      Xo  ..       oX ",
"      Xo......ooooooX ",
"      XX......XXXXXXX ",
"         ....         ",
"         ....         ",
"          ..          "};
