/* XPM */
static char * select_xpm[] = {
"22 22 4 1",
" 	c none",
".	c #FFFFFFFFFFFF",
"X	c #000000000000",
"o	c #BEFBBEFBBEFB",
"                      ",
"                      ",
"     ..               ",
"     .X.              ",
"     .XX.             ",
"     .XXX.            ",
"     .XXXX.           ",
"     .XXXXX.          ",
"     .XooXXX.         ",
"     .XXoXXXX.        ",
"     .XXooXXXX.       ",
"     .XXXoXXXXX.      ",
"     .XXXoXXX....     ",
"     .XXXXXX.         ",
"     .X..XXX.         ",
"     ..  .XXX.        ",
"     .   .XXX.        ",
"          .XX.        ",
"          ...         ",
"                      ",
"                      ",
"                      "};
